<svg xmlns="http://www.w3.org/2000/svg" xmlns:xlink="http://www.w3.org/1999/xlink" width="1080" zoomAndPan="magnify" viewBox="0 0 810 735" height="980" preserveAspectRatio="xMidYMid meet" version="1.0"><defs><clipPath id="0fde16a302"><path d="M 2 13.125 L 808 13.125 L 808 721.875 L 2 721.875 Z M 2 13.125 " clip-rule="nonzero"/></clipPath></defs><g clip-path="url(#0fde16a302)"><path fill="#000000" d="M 194.671875 236.609375 C 192.761719 235.039062 190.613281 233.570312 188.964844 232.105469 C 187.15625 230.535156 185.480469 228.203125 183.042969 227.757812 C 181.160156 227.339844 179.324219 227.339844 177.464844 227.339844 C 177.28125 227.523438 177.097656 227.703125 176.863281 227.835938 C 153.132812 244.757812 131.835938 261.179688 112.375 283.074219 C 102.660156 294 94.015625 305.550781 84.953125 316.996094 C 82.4375 320.164062 79.660156 322.890625 76.859375 325.507812 C 77.644531 325.140625 78.457031 324.828125 79.269531 324.511719 C 85.527344 320.164062 91.34375 315.789062 94.121094 314.089844 C 109.417969 304.605469 119.160156 289.832031 132.335938 277.863281 C 143.964844 267.308594 160.019531 261.832031 172.410156 252.589844 C 180.109375 246.800781 187.207031 241.71875 194.671875 236.609375 Z M 199.257812 263.773438 C 200.226562 263.195312 201.195312 263.089844 202.113281 263.273438 C 201.40625 256.148438 201.246094 249.050781 202.113281 242.214844 C 172.671875 261.125 142.15625 279.460938 118.558594 305.472656 C 116.566406 307.59375 114.417969 309.660156 112.191406 311.679688 C 119.527344 308.457031 126.78125 304.867188 133.800781 300.414062 C 145.066406 293.1875 158.265625 289.703125 169.503906 282.605469 C 179.429688 276.292969 189.042969 269.613281 199.257812 263.773438 Z M 214.054688 496.964844 C 211.671875 478 209.261719 458.984375 207.0625 440.023438 C 170.761719 429.363281 137.050781 410.660156 100.746094 399.582031 C 78.851562 392.953125 57.53125 385.671875 36.367188 377.605469 C 40.738281 381.457031 45.296875 385.097656 50.507812 387.820312 C 59.675781 392.5625 69.421875 396.804688 77.699219 402.984375 C 96.191406 416.660156 115.9375 429.203125 134.796875 442.300781 C 160.9375 460.582031 189.671875 476.195312 214.054688 496.964844 Z M 217.984375 530.28125 C 217.855469 529.363281 217.800781 528.421875 217.722656 527.480469 C 217.042969 521.847656 216.335938 516.164062 215.652344 510.480469 C 187.15625 483.632812 150.066406 464.984375 117.902344 442.300781 C 101.507812 430.722656 85.660156 416.132812 67.640625 406.785156 C 49.148438 397.25 34.898438 384.414062 17.980469 373.363281 C 29.976562 403.929688 37.046875 435.148438 46.605469 466.582031 C 50.011719 477.765625 51.582031 491.726562 58.550781 501.3125 C 60.175781 503.488281 67.0625 510.636719 68.214844 514.332031 C 71.253906 523.65625 77.699219 531.328125 79.84375 541.203125 C 97.289062 543.300781 110.910156 552.703125 127.75 556.683594 C 141.449219 559.90625 154.230469 566.21875 167.984375 568.628906 C 168.453125 568.078125 169.136719 567.683594 170.078125 567.5 C 180.269531 565.617188 185.558594 553.070312 194.777344 548.957031 C 199.992188 546.574219 203.054688 543.222656 207.246094 539.554688 C 210.757812 536.542969 214.945312 533.816406 217.984375 530.28125 Z M 228.226562 675.753906 C 228.226562 671.746094 228.277344 668.34375 227.910156 666.769531 C 223.039062 644.507812 224.847656 622.035156 223.171875 599.402344 C 221.730469 579.863281 220.8125 560.402344 219.007812 540.890625 C 217.09375 542.410156 215.183594 543.980469 213.609375 545.890625 C 210.414062 549.691406 206.566406 553.382812 201.980469 555.425781 C 192.527344 559.667969 186.398438 570.382812 177.097656 574.625 C 182.652344 586.648438 192.027344 596.679688 197.738281 608.703125 C 202.242188 618.367188 205.726562 628.398438 210.859375 637.777344 C 216.675781 648.304688 219.921875 660.5625 226.183594 670.753906 C 226.707031 671.617188 227.441406 673.476562 228.226562 675.753906 Z M 277.703125 677.066406 C 276.890625 674.863281 276 672.71875 274.925781 670.671875 C 268.144531 657.523438 268.796875 635.734375 266.914062 620.882812 C 264.058594 598.773438 259.316406 574.128906 253.503906 552.648438 C 247.425781 530.019531 249.335938 505.582031 243.023438 483.554688 C 237.707031 464.929688 233.910156 441.226562 233.910156 421.949219 C 233.910156 401.414062 224.558594 383.601562 221.335938 363.695312 C 217.671875 340.804688 214.054688 318.304688 208.371094 295.648438 C 206.460938 288.105469 204.574219 280.011719 203.210938 271.761719 C 201.484375 272.808594 199.730469 273.777344 197.949219 274.824219 C 198 275.035156 198.132812 275.21875 198.132812 275.429688 C 199.074219 297.21875 203.816406 318.253906 204.890625 339.992188 C 205.804688 359.507812 208.554688 380.511719 211.910156 399.789062 C 218.222656 435.726562 220.683594 472.527344 225.582031 508.828125 C 231.265625 550.867188 229.378906 593.667969 233.070312 635.8125 C 234.722656 654.382812 237.550781 672.507812 239.097656 690.921875 C 239.199219 692.097656 267.855469 680.679688 277.703125 677.066406 Z M 347.140625 574.992188 C 346.878906 574.703125 346.589844 574.441406 346.382812 574.050781 C 331.554688 547.28125 312.070312 522.058594 302.300781 492.484375 C 297.347656 477.503906 289.515625 462.964844 285.589844 447.800781 C 282.078125 434.101562 280.347656 420.117188 276.867188 406.363281 C 268.617188 373.808594 257.796875 342.089844 250.019531 309.398438 C 244.964844 288.050781 229.351562 269.089844 229.429688 246.722656 C 224.976562 245.515625 220.578125 243.550781 217.148438 240.355469 C 216.019531 239.257812 213.558594 238.890625 211.828125 238.207031 C 206.539062 262.253906 217.617188 285.851562 221.417969 308.902344 C 224.925781 329.804688 228.332031 350.863281 232.652344 371.527344 C 234.800781 381.585938 239.070312 390.492188 240.457031 400.601562 C 241.6875 409.691406 242.5 419.695312 244.257812 428.574219 C 248.054688 447.933594 249.703125 468.230469 252.613281 487.691406 C 255.730469 508.671875 257.167969 529.625 262.144531 550.242188 C 265.5 564.199219 266.308594 578.554688 270.109375 592.4375 C 272.074219 599.585938 275.292969 605.613281 275.292969 613.050781 C 275.292969 631.832031 281.476562 653.386719 285.167969 671.25 C 287.5 682.382812 290.851562 697.546875 296.511719 708.785156 C 297.164062 706.636719 297.847656 704.253906 298.945312 702.839844 C 303.871094 696.867188 306.203125 690.082031 310.3125 683.640625 C 315.550781 675.441406 319.035156 665.515625 322.886719 656.453125 C 331.53125 636.097656 337.605469 617.871094 342.582031 596.3125 C 344.179688 589.242188 345.699219 582.144531 347.140625 574.992188 Z M 349.785156 561.871094 C 355.992188 528.632812 360.105469 494.816406 361.179688 461.210938 C 354.683594 464.539062 347.769531 466.449219 340.566406 469.175781 C 333.992188 471.6875 327.496094 474.519531 320.921875 477.136719 C 316.523438 478.890625 311.78125 479.335938 307.511719 481.171875 C 309.320312 485.964844 311.308594 490.703125 313.535156 495.394531 C 324.589844 518.46875 337.371094 539.867188 349.785156 561.871094 Z M 385.015625 646.601562 C 390.644531 641.808594 395.570312 636.386719 399.105469 629.605469 C 380.773438 629.789062 360.734375 631.515625 343.183594 636.886719 C 342.582031 637.070312 342.03125 637.121094 341.507812 637.015625 C 336.53125 650.609375 330.296875 663.863281 324.328125 676.804688 C 320.109375 685.8125 314.84375 697.601562 308.53125 705.246094 C 307.457031 706.503906 306.777344 707.839844 306.148438 709.125 C 313.167969 704.304688 318.695312 696.867188 325.609375 692.097656 C 335.195312 685.421875 343.160156 676.699219 352.273438 669.679688 C 362.203125 661.976562 373.570312 655.875 383.234375 648.070312 C 383.652344 647.441406 384.308594 646.96875 385.015625 646.601562 Z M 462.519531 575.203125 C 456.023438 568.628906 448.898438 565.273438 443.265625 557.261719 C 433.96875 544.058594 423.308594 532.167969 413.433594 519.410156 C 399.082031 501 389.730469 475.589844 370.03125 461.945312 C 368.304688 512.3125 358.351562 561.109375 348.921875 610.71875 C 348.34375 613.992188 347.535156 617.214844 346.722656 620.4375 C 357.957031 614.253906 372.050781 609.644531 383.339844 607.367188 C 405.210938 603.019531 425.300781 594.035156 444.890625 583.976562 C 450.707031 580.964844 456.597656 578.109375 462.519531 575.203125 Z M 522.367188 546.257812 C 509.875 535.652344 501.78125 522.320312 491.171875 510.0625 C 489.3125 509.667969 487.691406 508.203125 487.507812 506.078125 C 486.851562 505.371094 486.195312 504.664062 485.542969 503.933594 C 469.355469 487.667969 450.785156 456.210938 426.582031 451.964844 C 426.164062 451.914062 425.953125 451.730469 425.640625 451.597656 C 425.195312 451.914062 424.644531 452.148438 424.042969 452.148438 C 415.085938 452.148438 403.535156 452.488281 393.082031 453.617188 C 387.660156 454.246094 380.378906 453.222656 374.460938 454.140625 C 393.789062 467.261719 403.21875 490.128906 416.523438 508.542969 C 432.582031 530.832031 451.230469 549.976562 469.722656 569.753906 C 470.113281 570.199219 470.375 570.695312 470.558594 571.167969 C 487.769531 562.8125 505.132812 554.613281 522.367188 546.257812 Z M 517.390625 622.113281 C 524.097656 609.121094 535.386719 599.640625 543.425781 587.667969 C 534.207031 588.902344 525.667969 588.925781 515.742188 587.828125 C 515.0625 587.773438 514.433594 587.539062 513.933594 587.222656 C 495.785156 596.757812 477.316406 605.613281 458.039062 613.757812 C 442.691406 620.253906 426.007812 627.457031 409.035156 629.210938 C 405.734375 636.886719 401.253906 642.832031 396.121094 647.886719 C 408.011719 650.453125 419.695312 653.175781 431.953125 655.140625 C 445.78125 657.289062 484.703125 672.007812 494.449219 656.582031 C 501.597656 645.292969 511.261719 633.898438 517.390625 622.113281 Z M 542.746094 78.90625 C 544.292969 71.101562 550.578125 49.046875 551.335938 33.828125 C 540.023438 62.585938 531.429688 94.253906 526.035156 124.140625 C 519.671875 159.027344 507.492188 191.925781 496.726562 225.425781 C 473.46875 297.980469 451.910156 371.160156 427.917969 443.375 C 428.234375 443.375 428.597656 443.296875 428.964844 443.375 C 450.207031 447.09375 467.078125 470.535156 480.488281 485.464844 C 483.5 488.820312 486.433594 492.40625 489.339844 496.023438 C 494.472656 471.871094 497.984375 446.542969 502.4375 422.34375 C 507.542969 394.527344 511.628906 366.421875 512.441406 338.160156 C 513.410156 304.34375 519.59375 269.535156 526.507812 236.425781 C 533.894531 201.40625 531.066406 166.101562 537.742188 131.082031 C 541.019531 113.898438 539.445312 95.695312 542.746094 78.90625 Z M 732.5625 450.261719 C 736.648438 447.410156 740.789062 444.65625 744.953125 441.882812 C 680.546875 474.152344 617.917969 509.800781 553.09375 541.074219 C 534.183594 550.1875 515.691406 560.21875 496.410156 569.125 C 479.203125 577.140625 460.136719 584.371094 444.15625 594.53125 C 419.066406 610.457031 386.351562 611.925781 359.449219 623.867188 C 389.285156 618.628906 419.5625 620.332031 448.53125 608.125 C 489.390625 590.945312 531.378906 573.183594 567.183594 546.703125 C 602.335938 520.589844 642.882812 504.296875 679.550781 481.039062 C 696.917969 470.039062 715.644531 462.023438 732.5625 450.261719 Z M 746.289062 451.703125 C 745.214844 452.410156 744.0625 453.09375 742.988281 453.851562 C 725.542969 466.058594 706.609375 474.519531 688.71875 485.832031 C 671.222656 496.914062 651.945312 504.691406 634.289062 515.429688 C 613.308594 528.238281 592.644531 541.703125 571.664062 554.40625 C 557.308594 563.179688 542.929688 571.484375 528.472656 579.445312 C 540.023438 579.234375 551.074219 577.21875 562.96875 575.304688 C 567.761719 574.496094 572.421875 574.441406 577.191406 574.574219 C 590.128906 575.019531 597.019531 566.871094 606.238281 559.667969 C 623.5 546.207031 641.648438 534 658.9375 520.539062 C 680.9375 503.355469 707.601562 490.074219 727.273438 470.222656 C 733.636719 463.855469 739.949219 457.726562 746.289062 451.703125 Z M 800.246094 406.101562 C 804.359375 403.195312 809.964844 409.011719 805.929688 412.808594 C 798.804688 419.566406 790.527344 425.195312 781.910156 430.488281 C 771.617188 438.398438 761.089844 446.28125 752.652344 455.816406 C 743.171875 466.449219 733.980469 478.210938 722.085938 486.304688 C 697.597656 503.144531 673.605469 520.617188 650.398438 539.1875 C 631.828125 554.039062 610.613281 571.929688 589.371094 582.351562 C 580.253906 586.832031 565.273438 584.867188 554.480469 586.019531 C 554.429688 586.621094 554.246094 587.222656 553.90625 587.851562 C 549.058594 596.417969 542.851562 602.074219 536.800781 609.644531 C 530.042969 618.054688 525.539062 627.71875 518.519531 635.734375 C 510.292969 645.164062 504.425781 667.476562 491.566406 671.929688 C 474.621094 677.773438 452.566406 667.347656 435.515625 664.675781 C 419.144531 662.136719 403.585938 658.496094 387.476562 655.195312 C 377.050781 663.050781 365.265625 669.546875 354.839844 679.867188 C 344.496094 690.160156 332.054688 698.359375 321.132812 708.050781 C 314.742188 713.707031 308.402344 719.707031 299.992188 721.878906 C 299 722.117188 298.160156 721.984375 297.402344 721.695312 C 295.515625 722.167969 293.679688 721.355469 292.503906 719.707031 C 285.222656 709.542969 283.492188 697.363281 280.347656 685.605469 C 280.167969 685.605469 280.035156 685.605469 279.851562 685.605469 C 265.945312 690.34375 251.929688 701.605469 237.261719 701.710938 C 234.800781 701.738281 233.019531 700.402344 231.710938 698.359375 C 230.949219 698.308594 230.191406 698.097656 229.429688 697.546875 C 224.296875 694.011719 223.222656 688.695312 222.019531 682.75 C 220.527344 675.308594 213.609375 664.808594 210.597656 657.683594 C 204.890625 644.140625 197.84375 625.675781 189.984375 613.234375 C 182.835938 601.917969 173.929688 590 168.691406 577.714844 C 137.339844 572.871094 109.285156 552.308594 77.355469 549.796875 C 75.863281 549.691406 74.738281 548.984375 74.03125 548.015625 C 72.824219 547.648438 71.855469 546.757812 71.542969 545.054688 C 69.421875 532.351562 61.589844 520.589844 54.070312 510.296875 C 44.957031 497.804688 42.179688 483.632812 37.964844 469.015625 C 28.011719 434.023438 19.785156 398.507812 4.910156 365.007812 C -0.171875 362.621094 4.332031 355.054688 9.519531 357.304688 C 44.589844 372.339844 80.527344 382.398438 116.566406 394.867188 C 146.714844 405.34375 175.632812 420.875 206.042969 430.304688 C 205.230469 422.65625 204.390625 415.007812 203.710938 407.414062 C 201.691406 385.097656 196.0625 362.414062 195.929688 339.992188 C 195.800781 319.535156 190.875 299.945312 189.488281 279.699219 C 170.445312 290.59375 151.5625 301.203125 132.152344 311.730469 C 113.84375 321.683594 94.695312 327.472656 75.941406 335.382812 C 69.394531 338.789062 63.527344 344.601562 56.011719 343.476562 C 54.359375 343.265625 53.46875 342.269531 53.050781 341.117188 C 51.53125 339.546875 50.953125 336.953125 52.917969 334.886719 C 64.234375 323.125 75.8125 314.007812 85.894531 300.675781 C 93.542969 290.460938 102.082031 280.222656 111.066406 271.160156 C 130.582031 251.460938 149.804688 236.21875 172.410156 220.136719 C 172.984375 219.691406 173.613281 219.429688 174.191406 219.351562 C 174.898438 218.800781 175.761719 218.40625 176.863281 218.40625 C 183.410156 218.40625 188.335938 219.296875 193.15625 223.855469 C 195.984375 226.5 199.386719 228.832031 202.191406 231.554688 C 203.265625 230.847656 204.261719 230.167969 205.335938 229.484375 C 206.304688 226.449219 210.023438 224.429688 212.484375 227.523438 C 215.207031 230.980469 219.582031 230.402344 222.542969 233.125 C 225.816406 236.21875 229.667969 237.738281 233.988281 238.707031 C 236.449219 239.257812 237.316406 241.273438 237.078125 243.183594 C 237.890625 243.945312 238.390625 244.964844 238.390625 246.355469 C 238.207031 261.832031 247.375 274.277344 252.21875 288.367188 C 255.832031 298.976562 258.609375 309.347656 261.699219 320.085938 C 269.847656 348.035156 277.390625 376.007812 285.484375 403.953125 C 292.1875 427.058594 296.71875 450.394531 304.472656 472.945312 C 307.640625 471.925781 310.890625 471.558594 314.347656 470.222656 C 320.738281 467.628906 327.234375 465.191406 333.546875 462.390625 C 343.789062 457.726562 355.050781 456.574219 363.824219 448.953125 C 363.902344 448.925781 363.957031 448.925781 364.007812 448.875 C 364.402344 448.351562 364.898438 447.878906 365.660156 447.539062 C 373.125 444.265625 381.269531 445.96875 389.179688 445.128906 C 398.765625 444.03125 409.898438 443.453125 418.542969 443.296875 C 431.324219 404.765625 441.484375 365.085938 456.234375 327.210938 C 469.722656 292.742188 482.554688 253.976562 489.785156 217.59375 C 493.871094 197.242188 504.140625 178.855469 509.195312 158.6875 C 513.019531 143.417969 514.617188 127.019531 519.355469 112.066406 C 529.414062 80.265625 535.097656 48.863281 548.300781 18.035156 C 548.300781 17.089844 548.746094 16.253906 549.453125 15.546875 C 550.710938 13.292969 553.144531 13.242188 554.925781 14.472656 C 555.632812 14.734375 556.316406 15.203125 556.890625 15.992188 C 564.851562 26.625 556.578125 50.828125 555.160156 62.089844 C 552.910156 79.691406 553.617188 99.859375 549.871094 117.09375 C 545.445312 137.472656 541.855469 158.191406 541.828125 179.089844 C 541.828125 193.707031 542.300781 210.628906 538.503906 224.875 C 527.320312 267.152344 523.964844 311.992188 520.429688 355.339844 C 518.28125 381.457031 514.746094 407.492188 509.429688 433.160156 C 504.480469 456.96875 501.914062 481.617188 496.59375 505.136719 C 507.175781 518.652344 518.019531 532.402344 531.117188 542.015625 C 538.949219 538.164062 546.753906 534.261719 554.480469 530.28125 C 635.234375 488.453125 715.199219 443.765625 798.28125 406.523438 C 798.960938 406.234375 799.617188 406.101562 800.246094 406.101562 " fill-opacity="1" fill-rule="nonzero"/></g></svg>